<?xml version="1.0" standalone="no"?>
<!DOCTYPE svg PUBLIC "-//W3C//DTD SVG 20010904//EN"
 "http://www.w3.org/TR/2001/REC-SVG-20010904/DTD/svg10.dtd">
<svg version="1.0" xmlns="http://www.w3.org/2000/svg"
 width="343.000000pt" height="232.000000pt" viewBox="0 0 343.000000 232.000000"
 preserveAspectRatio="xMidYMid meet">

<g transform="translate(0.000000,232.000000) scale(0.100000,-0.100000)"
fill="#000000" stroke="none">
<path d="M0 1160 l0 -1160 1715 0 1715 0 0 1160 0 1160 -1715 0 -1715 0 0
-1160z m939 1045 c62 -32 80 -71 91 -196 6 -63 15 -136 21 -162 8 -34 8 -52 1
-59 -12 -12 -16 4 -36 178 -17 143 -33 186 -78 214 -29 18 -44 19 -118 14 -47
-3 -158 -9 -247 -13 -161 -7 -163 -7 -193 -36 -16 -16 -32 -42 -36 -60 -5 -28
7 -157 37 -408 7 -53 9 -100 6 -103 -15 -15 -25 13 -31 88 -4 46 -15 157 -25
248 -18 158 -18 166 -1 206 30 70 63 83 236 92 277 15 341 14 373 -3z m2063
-430 c125 0 148 -2 148 -15 0 -18 -26 -353 -40 -510 -15 -178 -18 -165 43
-176 l52 -9 -3 -40 c-2 -22 -14 -116 -28 -209 -13 -94 -24 -186 -24 -206 0
-20 -5 -41 -10 -46 -6 -6 -12 -63 -14 -126 -3 -113 -4 -117 -34 -156 -41 -51
-93 -72 -175 -70 -50 1 -77 -5 -123 -26 -32 -16 -104 -36 -159 -46 -105 -19
-117 -18 -159 22 -12 11 -47 40 -78 65 -32 25 -58 49 -58 52 0 4 39 13 88 20
70 10 232 54 251 68 2 2 -4 12 -14 23 -15 16 -17 30 -11 87 3 38 2 83 -4 102
-9 31 -4 91 16 221 3 19 14 85 23 145 18 108 45 177 75 188 15 6 19 59 5 67
-8 6 -13 97 -9 174 l2 39 24 -27 c31 -33 66 -42 113 -28 60 18 93 62 99 127 8
93 -47 154 -153 171 -22 3 -42 1 -51 -7 -8 -6 -16 -10 -17 -8 -1 2 -1 38 1 80
l4 77 36 -11 c20 -6 103 -11 184 -12z m-485 -25 c5 -17 14 -20 58 -20 30 0 62
-3 72 -7 16 -6 16 -5 4 10 -7 9 -9 17 -3 17 26 0 33 -31 28 -132 -16 -339 -27
-410 -67 -439 -15 -10 -33 -19 -41 -19 -8 0 -19 -5 -25 -11 -8 -8 -13 -3 -18
19 -7 36 -40 67 -80 77 -16 4 -24 10 -17 12 8 3 9 9 4 16 -5 7 -6 113 -3 242
l6 230 22 -2 c13 -2 22 1 22 5 -5 29 31 31 38 2z m66 13 c-7 -2 -21 -2 -30 0
-10 3 -4 5 12 5 17 0 24 -2 18 -5z m-2013 -13 c0 -5 -5 -10 -11 -10 -5 0 -7 5
-4 10 3 6 8 10 11 10 2 0 4 -4 4 -10z m30 -22 c-18 -7 -20 -11 -10 -23 13 -16
3 -20 -18 -6 -11 6 -10 11 3 25 9 9 14 16 10 16 -3 0 -3 5 0 10 5 8 12 7 22
-1 13 -11 12 -14 -7 -21z m57 -10 c-7 -4 -18 -8 -26 -8 -11 0 -9 4 5 15 12 9
14 14 6 15 -7 0 -10 5 -7 11 5 6 12 4 20 -8 10 -13 10 -20 2 -25z m43 32 c0
-5 -4 -10 -10 -10 -5 0 -10 5 -10 10 0 6 5 10 10 10 6 0 10 -4 10 -10z m366
-177 c2 -48 8 -89 13 -92 16 -10 72 -493 60 -513 -13 -21 -48 196 -49 300 0
34 -3 62 -8 62 -4 0 -6 -18 -4 -41 4 -34 1 -41 -16 -46 -21 -5 -31 -41 -33
-118 0 -22 -5 -51 -10 -65 -6 -16 -7 12 -4 79 l5 104 -42 -8 c-24 -4 -80 -9
-126 -11 -45 -2 -117 -8 -159 -13 -43 -5 -81 -7 -87 -4 -5 3 -6 1 -2 -5 10
-17 -6 -15 -32 4 -13 9 -21 22 -18 29 2 7 1 16 -4 21 -9 10 -30 114 -30 150 0
14 8 24 21 27 19 5 20 10 14 59 -8 56 -20 88 -34 88 -12 0 -21 -40 -16 -70 5
-23 4 -23 -6 3 -6 15 -8 43 -5 62 8 39 8 39 196 55 63 6 149 15 190 20 77 10
172 17 179 12 2 -1 6 -41 7 -89z m752 -49 c23 -6 23 -10 20 -90 -2 -46 -6 -84
-10 -84 -5 0 -8 -4 -8 -10 0 -5 14 -10 31 -10 17 0 28 4 24 10 -3 6 5 10 19
10 25 0 25 -1 28 -92 3 -81 5 -93 20 -90 9 1 19 -2 23 -8 3 -5 -1 -10 -9 -10
-9 0 -16 -7 -16 -15 0 -8 -5 -15 -11 -15 -5 0 -7 6 -3 13 4 7 3 9 -2 4 -9 -9
-11 -14 -13 -46 -1 -22 -30 -23 -48 -1 -15 19 -42 4 -54 -28 -7 -17 -3 -28 13
-44 20 -20 22 -21 28 -3 4 12 9 15 13 8 4 -6 0 -18 -8 -27 -12 -12 -14 -20 -5
-36 6 -11 8 -20 4 -20 -4 0 22 -30 58 -67 83 -87 92 -104 92 -185 0 -57 -4
-73 -32 -118 -18 -28 -32 -53 -32 -55 0 -2 31 -3 68 -3 78 1 137 -15 170 -45
21 -20 22 -28 20 -115 l-3 -93 61 -32 c33 -18 90 -45 127 -62 37 -16 67 -32
66 -35 0 -3 -23 -20 -51 -38 -40 -27 -55 -32 -72 -24 -76 34 -100 42 -131 42
-18 0 -36 4 -39 8 -3 5 -36 17 -73 27 -107 28 -175 51 -213 72 l-35 20 2 110
2 111 -31 4 c-17 3 -35 -1 -43 -9 -8 -7 -23 -13 -34 -13 -12 0 -21 -4 -21 -10
0 -5 -7 -10 -15 -10 -8 0 -15 4 -15 9 0 6 -20 24 -44 41 -63 46 -91 107 -90
195 l2 69 -24 -39 c-13 -22 -24 -44 -24 -48 0 -9 13 -39 61 -146 32 -68 31
-86 -5 -136 -15 -20 -21 -40 -19 -61 6 -46 -12 -80 -59 -114 -36 -27 -49 -31
-80 -26 -21 4 -38 2 -38 -3 0 -4 -27 -20 -60 -35 -61 -28 -76 -27 -112 6 -8 7
-38 26 -68 42 -67 36 -110 65 -109 74 3 22 -16 52 -33 52 -10 0 -17 4 -14 9 3
4 17 6 32 3 20 -4 25 -1 22 9 -6 15 -7 15 -51 4 -24 -6 -27 -5 -27 20 0 15 4
24 10 20 6 -4 8 -11 5 -16 -8 -12 2 -11 26 1 28 15 27 80 -1 80 -11 0 -20 -6
-20 -14 0 -8 -4 -18 -10 -21 -5 -3 -10 3 -10 14 0 12 10 23 26 28 23 8 25 14
28 74 2 36 11 80 21 98 l17 34 81 -7 c45 -4 90 -8 100 -9 15 -2 19 6 22 37 2
31 10 47 38 73 31 28 44 33 86 33 50 0 101 -27 101 -55 0 -7 9 -23 20 -36 l21
-24 -7 35 c-4 19 -7 47 -6 61 3 37 37 111 62 134 11 10 18 25 16 32 -3 7 0 13
6 13 6 0 9 2 7 5 -3 2 -19 1 -36 -4 l-31 -9 0 47 c0 54 -8 77 -29 85 -35 14
-142 -41 -144 -73 0 -10 -4 -7 -10 7 -5 13 -7 28 -4 32 3 5 -8 16 -25 25 -38
20 -39 58 -1 63 15 2 21 0 16 -7 -9 -15 24 -26 37 -13 8 8 7 13 -6 18 -12 5
-14 10 -6 19 6 8 9 31 7 53 -3 22 -1 55 3 73 4 19 8 30 9 26 1 -5 8 -1 16 7
11 11 14 26 10 48 -3 19 0 44 7 57 13 24 109 81 137 81 26 0 81 -50 89 -83 9
-34 36 -47 56 -26 8 9 8 10 0 6 -8 -5 -11 2 -10 18 0 14 4 25 7 25 3 0 4 25 1
56 l-5 55 63 -7 c46 -5 61 -4 56 5 -8 12 -1 13 32 5z m-1300 -79 c-3 -3 -9 2
-12 12 -6 14 -5 15 5 6 7 -7 10 -15 7 -18z m-103 -37 c2 -7 13 -112 25 -233
28 -295 29 -300 36 -321 4 -11 4 -16 -1 -12 -4 4 -13 1 -19 -7 -9 -12 -11 -4
-13 37 -2 49 -25 246 -42 363 -5 34 -9 -30 -14 -197 -4 -135 -4 -254 -1 -265
5 -16 4 -16 -11 2 -15 18 -16 42 -11 205 3 102 5 242 6 313 0 121 1 127 20
127 11 0 22 -6 25 -12z m1810 -238 c-3 -5 -3 -10 2 -11 4 0 19 -3 33 -5 33 -6
72 4 65 16 -8 13 -7 13 70 -11 l68 -21 -6 -96 c-4 -54 -7 -132 -7 -176 l0 -78
-32 6 c-18 3 -69 8 -113 11 -44 3 -97 8 -117 11 l-38 6 0 79 c0 46 -4 79 -10
79 -6 0 -9 23 -9 53 1 28 3 43 6 32 10 -39 18 -33 15 10 -2 25 -8 45 -14 45
-5 0 -6 5 -3 10 3 6 16 10 28 10 18 0 19 2 7 10 -12 8 -9 10 13 10 15 0 27 5
27 10 0 6 5 10 11 10 5 0 7 -4 4 -10z m-1617 -358 c10 -6 5 -9 -16 -8 -21 1
-28 5 -24 15 4 10 1 12 -8 6 -9 -5 -11 -4 -6 3 7 12 17 9 54 -16z m-111 -44
c-3 -7 -5 -2 -5 12 0 14 2 19 5 13 2 -7 2 -19 0 -25z m258 2 c40 -12 143 -15
178 -5 21 5 27 4 27 -8 0 -17 -49 -37 -89 -37 -14 0 -41 -9 -60 -21 -25 -15
-43 -19 -71 -14 -35 6 -88 45 -62 45 21 0 13 16 -13 28 -60 28 6 36 90 12z
m285 0 c0 -5 -10 -10 -22 -9 -22 0 -22 1 -3 9 11 5 21 9 23 9 1 1 2 -3 2 -9z
m-523 -62 c-3 -7 -5 -2 -5 12 0 14 2 19 5 13 2 -7 2 -19 0 -25z m1809 -64 c7
-8 17 -49 24 -92 11 -71 10 -80 -10 -124 -22 -50 -46 -62 -70 -34 -6 8 -17 13
-24 10 -11 -4 -11 6 1 48 8 32 11 69 8 93 -8 47 -7 103 1 117 8 13 56 1 70
-18z m-1989 -56 c-3 -8 -6 -5 -6 6 -1 11 2 17 5 13 3 -3 4 -12 1 -19z m15
-178 c11 -47 25 -90 29 -96 5 -6 6 -14 2 -17 -3 -4 -1 -7 6 -7 8 0 10 -7 6
-20 -4 -13 -2 -20 5 -18 7 2 15 -3 17 -9 8 -23 -15 -14 -45 17 -17 17 -35 30
-41 30 -6 0 -11 5 -11 11 0 6 -14 24 -30 39 -30 28 -30 29 -16 67 8 21 23 67
33 103 18 65 18 65 21 25 1 -22 12 -78 24 -125z m98 -190 c0 -5 -2 -10 -4 -10
-3 0 -8 5 -11 10 -3 6 -1 10 4 10 6 0 11 -4 11 -10z m425 -70 c3 -5 1 -10 -4
-10 -6 0 -11 5 -11 10 0 6 2 10 4 10 3 0 8 -4 11 -10z"/>
<path d="M2860 1706 c0 -2 7 -6 15 -10 8 -3 15 -1 15 4 0 6 -7 10 -15 10 -8 0
-15 -2 -15 -4z"/>
<path d="M2791 1134 c0 -11 3 -14 6 -6 3 7 2 16 -1 19 -3 4 -6 -2 -5 -13z"/>
<path d="M2740 1003 c0 -16 2 -16 11 -3 8 11 12 12 16 3 2 -7 12 -13 21 -13
15 1 14 3 -2 15 -27 20 -46 19 -46 -2z"/>
<path d="M2905 1000 c-9 -15 4 -30 26 -30 12 0 19 7 19 20 0 21 -33 29 -45 10z"/>
<path d="M2876 692 c-4 -29 -6 -56 -3 -59 8 -8 19 60 15 88 -3 15 -7 5 -12
-29z"/>
<path d="M2671 574 c0 -11 3 -14 6 -6 3 7 2 16 -1 19 -3 4 -6 -2 -5 -13z"/>
<path d="M2981 381 c-14 -25 -14 -58 -1 -66 6 -4 22 1 36 10 19 12 24 23 22
43 -4 34 -41 43 -57 13z"/>
<path d="M2710 341 c0 -5 19 -21 43 -37 23 -16 45 -33 48 -38 4 -5 12 -7 18
-5 7 3 -15 23 -48 46 -34 23 -61 38 -61 34z"/>
<path d="M1434 1366 c-3 -8 -4 -23 -2 -33 5 -25 61 -25 66 0 7 37 -51 67 -64
33z"/>
<path d="M1735 1273 c-3 -32 -7 -65 -8 -73 -2 -10 -14 -15 -41 -15 l-38 0 6
-45 c4 -25 10 -74 13 -110 3 -36 10 -71 16 -78 8 -10 5 -14 -11 -19 -25 -6
-26 -11 -8 -36 21 -27 69 -13 60 17 -6 18 -5 19 9 7 9 -7 39 -15 67 -18 50 -4
50 -3 38 17 -7 12 -25 24 -40 27 -29 6 -37 18 -15 26 8 3 4 12 -13 30 -39 39
-37 79 5 121 l35 36 -27 6 c-16 4 -31 11 -34 16 -3 5 -4 40 -2 78 4 85 -3 92
-12 13z m8 -320 c-7 -2 -19 -2 -25 0 -7 3 -2 5 12 5 14 0 19 -2 13 -5z m64
-29 c-3 -3 -12 -4 -19 -1 -8 3 -5 6 6 6 11 1 17 -2 13 -5z"/>
<path d="M1385 1280 c-4 -6 6 -10 22 -10 22 0 25 2 13 10 -19 12 -27 12 -35 0z"/>
<path d="M1527 1273 c-4 -3 -7 -20 -6 -37 l1 -31 9 34 c10 33 8 47 -4 34z"/>
<path d="M1520 1150 c0 -29 3 -50 7 -46 7 7 5 87 -3 95 -2 2 -4 -20 -4 -49z"/>
<path d="M1754 828 c-3 -5 -3 -12 0 -15 3 -4 6 -2 6 4 0 6 9 9 20 6 11 -3 20
-3 20 0 0 10 -40 15 -46 5z"/>
<path d="M1305 710 c-3 -4 1 -11 7 -13 8 -3 6 -6 -5 -6 -27 -1 -10 -21 17 -21
27 0 48 21 38 36 -9 12 -50 16 -57 4z"/>
<path d="M1760 671 c-7 -13 -7 -22 0 -26 5 -3 10 -24 10 -46 0 -21 5 -39 10
-39 6 0 10 17 10 38 0 21 5 43 12 50 8 8 8 15 -2 27 -17 20 -27 19 -40 -4z"/>
<path d="M1482 495 c0 -16 2 -22 5 -12 2 9 2 23 0 30 -3 6 -5 -1 -5 -18z"/>
<path d="M2040 449 c0 -7 -10 -9 -25 -7 -13 3 -22 1 -19 -3 9 -16 64 -10 64 6
0 8 -4 15 -10 15 -5 0 -10 -5 -10 -11z"/>
<path d="M1300 358 c0 -11 22 -10 40 2 11 8 9 9 -12 8 -16 -1 -28 -6 -28 -10z"/>
<path d="M1225 340 c-25 -11 1 -11 35 0 20 6 21 8 5 8 -11 0 -29 -3 -40 -8z"/>
<path d="M1100 320 c0 -5 5 -10 11 -10 5 0 7 5 4 10 -3 6 -8 10 -11 10 -2 0
-4 -4 -4 -10z"/>
<path d="M1175 300 c3 -5 8 -10 11 -10 2 0 4 5 4 10 0 6 -5 10 -11 10 -5 0 -7
-4 -4 -10z"/>
<path d="M1465 300 c-3 -5 -1 -10 4 -10 6 0 11 5 11 10 0 6 -2 10 -4 10 -3 0
-8 -4 -11 -10z"/>
<path d="M1495 276 c-11 -8 -14 -15 -8 -19 6 -4 16 0 23 8 17 21 8 28 -15 11z"/>
<path d="M1424 259 c-11 -18 11 -32 25 -16 9 12 8 16 -3 20 -9 4 -18 1 -22 -4z"/>
<path d="M1262 238 c-14 -14 -16 -44 -3 -52 5 -3 12 2 15 11 6 14 9 15 15 4 6
-9 11 -10 15 -2 4 6 2 11 -5 11 -6 0 -9 8 -6 20 6 22 -12 27 -31 8z"/>
<path d="M1161 224 c0 -11 3 -14 6 -6 3 7 2 16 -1 19 -3 4 -6 -2 -5 -13z"/>
<path d="M720 736 c0 -12 10 -16 43 -15 40 1 40 1 11 8 -17 4 -36 11 -42 15
-7 4 -12 1 -12 -8z"/>
<path d="M287 383 c-4 -3 -7 -11 -7 -17 0 -6 5 -5 12 2 6 6 9 14 7 17 -3 3 -9
2 -12 -2z"/>
<path d="M326 337 c3 -10 9 -15 12 -12 3 3 0 11 -7 18 -10 9 -11 8 -5 -6z"/>
</g>
</svg>
